<svg width="40" height="40" viewBox="0 0 40 40" fill="none" xmlns="http://www.w3.org/2000/svg">
<path d="M15.743 19.2651C15.4339 19.1933 15.1238 19.1379 14.814 19.1002C14.9731 18.5248 15.2548 17.8891 15.692 17.183C16.6134 15.6964 17.7747 14.6205 19.169 13.904L21.2003 12.8601L19.8975 10.9843L17.2642 7.19264L16.2802 5.77582L14.7342 6.54107C13.2516 7.27496 11.8445 8.2044 10.5499 9.3262C9.23551 10.4507 8.07774 11.7364 7.05721 13.1742C5.98168 14.6896 5.18212 16.393 4.67268 18.2986C4.15732 20.2265 4.01175 22.1999 4.25762 24.2219C4.57257 26.8442 5.44244 29.1256 7.00243 30.8872C8.5992 32.7095 10.6708 33.6652 13.0832 33.6652C15.1232 33.6652 16.9645 33.0377 18.4393 31.6719C19.5143 30.6842 20.169 29.4589 20.464 28.0839C20.9046 29.1207 21.4836 30.0616 22.215 30.8883C23.8088 32.7005 25.8758 33.6485 28.2848 33.6485C30.3283 33.6485 32.1691 33.0211 33.6438 31.659C35.1664 30.2589 35.8538 28.3784 35.8581 26.2622L35.8598 26.2618C35.8598 24.4295 35.3733 22.7515 34.2961 21.3487L34.2961 21.3487L34.2897 21.3405C33.4369 20.2418 32.277 19.5546 30.9361 19.2537L30.9305 19.2525C30.6247 19.1847 30.3195 19.1326 30.0157 19.097C30.172 18.5236 30.4494 17.8899 30.8816 17.1885C31.8026 15.7108 32.9635 14.6357 34.3627 13.9112L36.3797 12.867L35.0886 10.9983L32.4619 7.19661L31.479 5.77395L29.9292 6.54107C28.4413 7.27758 27.044 8.20795 25.7466 9.32469C24.4375 10.4473 23.2731 11.7347 22.2571 13.1815C21.1894 14.6988 20.4033 16.3971 19.8957 18.2936C19.5877 19.4232 19.4141 20.5765 19.3724 21.7436C19.283 21.6097 19.1887 21.478 19.0894 21.3487L19.0806 21.3372L19.0716 21.3258C18.2215 20.2516 17.0749 19.5729 15.743 19.2651ZM15.743 19.2651C15.7436 19.2653 15.7442 19.2654 15.7448 19.2656L15.2915 21.2135M15.743 19.2651C15.7424 19.265 15.7418 19.2649 15.7412 19.2647L15.2915 21.2135M15.2915 21.2135C14.5915 21.0506 13.9207 21.0033 13.2939 21.071L16.6498 21.7813C16.2556 21.5209 15.8029 21.3315 15.2915 21.2135Z" fill="white" stroke="#0653B6" stroke-width="4"/>
</svg>
