<svg width="50" height="50" viewBox="0 0 60 60" fill="none" xmlns="http://www.w3.org/2000/svg">
<rect x="3" y="10" width="54" height="40" fill="none"/>
<path d="M55.3797 7.50684H4.62025C2.07595 7.50684 0 9.58279 0 12.1271V47.8739C0 50.4182 2.07595 52.4942 4.62025 52.4942H55.3797C57.9241 52.4942 60 50.4182 60 47.8739V12.1271C60 9.58279 57.9241 7.50684 55.3797 7.50684ZM54.7089 10.9246L30.3165 31.7853L5.92405 10.9246H54.7089ZM56.5823 47.8739C56.5823 48.5322 56.038 49.0765 55.3797 49.0765H4.62025C3.96203 49.0765 3.41772 48.5322 3.41772 47.8739V13.279L29.2025 35.3296C29.2152 35.3423 29.2405 35.3549 29.2532 35.3676C29.2658 35.3802 29.2911 35.3929 29.3038 35.4056C29.3418 35.4309 29.3671 35.4562 29.4051 35.4689C29.4177 35.4815 29.4304 35.4815 29.443 35.4942C29.4937 35.5195 29.5443 35.5448 29.5949 35.5701C29.6076 35.5701 29.6203 35.5828 29.6329 35.5828C29.6709 35.5954 29.7089 35.6208 29.7595 35.6334C29.7722 35.6334 29.7975 35.6461 29.8101 35.6461C29.8481 35.6587 29.8861 35.6714 29.9241 35.6714C29.9367 35.6714 29.962 35.684 29.9747 35.684C30.0127 35.6967 30.0633 35.6967 30.1013 35.7094C30.1139 35.7094 30.1266 35.7094 30.1392 35.7094C30.1899 35.7094 30.2532 35.722 30.3038 35.722C30.3544 35.722 30.4177 35.722 30.4684 35.7094C30.481 35.7094 30.4937 35.7094 30.5063 35.7094C30.5443 35.7094 30.5949 35.6967 30.6329 35.684C30.6456 35.684 30.6709 35.6714 30.6835 35.6714C30.7215 35.6587 30.7595 35.6461 30.7975 35.6461C30.8101 35.6461 30.8354 35.6334 30.8481 35.6334C30.8861 35.6208 30.9241 35.6081 30.9747 35.5828C30.9873 35.5828 31 35.5701 31.0127 35.5701C31.0633 35.5448 31.1139 35.5195 31.1646 35.4942C31.1772 35.4815 31.1899 35.4815 31.2025 35.4689C31.2405 35.4435 31.2658 35.4309 31.3038 35.4056C31.3165 35.3929 31.3418 35.3802 31.3544 35.3676C31.3671 35.3549 31.3924 35.3423 31.4051 35.3296L56.5823 13.8233V47.8739Z" fill="white"/>
</svg>
