<svg width="23" height="23" viewBox="0 0 23 23" fill="none" xmlns="http://www.w3.org/2000/svg">
<g filter="url(#filter0_d_301_44)">
<path d="M16.8086 6.18066C16.1178 5.48661 15.2951 4.93637 14.3886 4.56199C13.482 4.18761 12.5097 3.99658 11.5283 4.00005C7.41568 4.00005 4.06404 7.33566 4.06027 11.4306C4.06027 12.7422 4.40495 14.0181 5.05569 15.1478L4 19L7.95906 17.9669C9.05431 18.5602 10.2813 18.8712 11.5283 18.8716H11.532C15.6455 18.8716 18.9962 15.5359 19 11.4372C19.0009 10.4604 18.8077 9.49302 18.4314 8.59086C18.0552 7.68869 17.5033 6.86957 16.8076 6.18066H16.8086ZM11.5283 17.6134C10.4161 17.6138 9.3243 17.3159 8.36778 16.7509L8.14176 16.6159L5.79307 17.2291L6.42027 14.9481L6.27335 14.7128C5.65163 13.7288 5.32281 12.5894 5.32502 11.4269C5.32502 8.02753 8.10974 5.25442 11.532 5.25442C12.3473 5.25296 13.1548 5.41217 13.908 5.72288C14.6612 6.03358 15.3452 6.48963 15.9205 7.06472C16.4978 7.63758 16.9555 8.31856 17.2671 9.06837C17.5788 9.81819 17.7382 10.622 17.7362 11.4335C17.7324 14.845 14.9477 17.6134 11.5283 17.6134ZM14.9326 12.9878C14.7471 12.895 13.8308 12.446 13.6585 12.3822C13.4871 12.3213 13.3618 12.2894 13.2394 12.475C13.1141 12.6597 12.7563 13.0806 12.6489 13.2016C12.5416 13.3263 12.4304 13.3403 12.244 13.2485C12.0584 13.1547 11.4567 12.9597 10.7447 12.325C10.1891 11.8328 9.81711 11.2235 9.70599 11.0388C9.59863 10.8531 9.69563 10.7538 9.78886 10.661C9.87079 10.5785 9.97438 10.4435 10.0676 10.3366C10.1618 10.2297 10.1929 10.151 10.2541 10.0272C10.3153 9.90159 10.2861 9.79472 10.24 9.7019C10.1929 9.60909 9.82088 8.69316 9.66361 8.32378C9.51293 7.9591 9.35943 8.00972 9.24454 8.00503C9.13718 7.99847 9.01193 7.99847 8.88668 7.99847C8.79209 8.00081 8.69901 8.02259 8.61328 8.06244C8.52755 8.10229 8.45102 8.15935 8.3885 8.23003C8.2171 8.41566 7.73776 8.86472 7.73776 9.78065C7.73776 10.6966 8.40639 11.5769 8.50056 11.7016C8.59285 11.8263 9.81335 13.7003 11.6865 14.5066C12.1291 14.6988 12.4775 14.8122 12.7497 14.8984C13.197 15.0409 13.601 15.0194 13.9231 14.9734C14.2809 14.9191 15.0259 14.5235 15.1831 14.0894C15.3376 13.6544 15.3376 13.2831 15.2905 13.2053C15.2443 13.1266 15.1191 13.0806 14.9326 12.9878Z" fill="white"/>
</g>
<defs>
<filter id="filter0_d_301_44" x="0" y="0" width="23" height="23" filterUnits="userSpaceOnUse" color-interpolation-filters="sRGB">
<feFlood flood-opacity="0" result="BackgroundImageFix"/>
<feColorMatrix in="SourceAlpha" type="matrix" values="0 0 0 0 0 0 0 0 0 0 0 0 0 0 0 0 0 0 127 0" result="hardAlpha"/>
<feOffset/>
<feGaussianBlur stdDeviation="2"/>
<feComposite in2="hardAlpha" operator="out"/>
<feColorMatrix type="matrix" values="0 0 0 0 0 0 0 0 0 0.6 0 0 0 0 0 0 0 0 0.6 0"/>
<feBlend mode="normal" in2="BackgroundImageFix" result="effect1_dropShadow_301_44"/>
<feBlend mode="normal" in="SourceGraphic" in2="effect1_dropShadow_301_44" result="shape"/>
</filter>
</defs>
</svg>
