<svg width="23" height="23" viewBox="0 0 23 23" fill="none" xmlns="http://www.w3.org/2000/svg">
<g filter="url(#filter0_d_301_47)">
<path d="M11.5 4C9.46469 4 9.20875 4.00938 8.40906 4.045C7.60938 4.0825 7.06469 4.20812 6.5875 4.39375C6.08696 4.58202 5.63359 4.87734 5.25906 5.25906C4.87757 5.63378 4.58229 6.0871 4.39375 6.5875C4.20812 7.06375 4.08156 7.60937 4.045 8.40625C4.00938 9.20781 4 9.46281 4 11.5009C4 13.5372 4.00938 13.7922 4.045 14.5919C4.0825 15.3906 4.20812 15.9353 4.39375 16.4125C4.58594 16.9056 4.84188 17.3237 5.25906 17.7409C5.67531 18.1581 6.09344 18.415 6.58656 18.6062C7.06469 18.7919 7.60844 18.9184 8.40719 18.955C9.20781 18.9906 9.46281 19 11.5 19C13.5372 19 13.7913 18.9906 14.5919 18.955C15.3897 18.9175 15.9362 18.7919 16.4134 18.6062C16.9137 18.4179 17.3667 18.1226 17.7409 17.7409C18.1581 17.3237 18.4141 16.9056 18.6062 16.4125C18.7909 15.9353 18.9175 15.3906 18.955 14.5919C18.9906 13.7922 19 13.5372 19 11.5C19 9.46281 18.9906 9.20781 18.955 8.40719C18.9175 7.60938 18.7909 7.06375 18.6062 6.5875C18.4177 6.08709 18.1225 5.63376 17.7409 5.25906C17.3665 4.8772 16.9131 4.58186 16.4125 4.39375C15.9344 4.20812 15.3888 4.08156 14.5909 4.045C13.7903 4.00938 13.5363 4 11.4981 4H11.5009H11.5ZM10.8278 5.35188H11.5009C13.5034 5.35188 13.7406 5.35844 14.5309 5.395C15.2622 5.42781 15.6597 5.55062 15.9241 5.65281C16.2738 5.78875 16.5241 5.95187 16.7866 6.21438C17.0491 6.47688 17.2113 6.72625 17.3472 7.07687C17.4503 7.34031 17.5722 7.73781 17.605 8.46906C17.6416 9.25938 17.6491 9.49656 17.6491 11.4981C17.6491 13.4997 17.6416 13.7378 17.605 14.5281C17.5722 15.2594 17.4494 15.6559 17.3472 15.9203C17.2269 16.246 17.035 16.5404 16.7856 16.7819C16.5231 17.0444 16.2738 17.2066 15.9231 17.3425C15.6606 17.4456 15.2631 17.5675 14.5309 17.6013C13.7406 17.6369 13.5034 17.6453 11.5009 17.6453C9.49844 17.6453 9.26031 17.6369 8.47 17.6013C7.73875 17.5675 7.34219 17.4456 7.07781 17.3425C6.75203 17.2224 6.45731 17.0309 6.21531 16.7819C5.9657 16.54 5.77349 16.2453 5.65281 15.9194C5.55062 15.6559 5.42781 15.2584 5.395 14.5272C5.35938 13.7369 5.35188 13.4997 5.35188 11.4962C5.35188 9.49375 5.35938 9.2575 5.395 8.46719C5.42875 7.73594 5.55063 7.33844 5.65375 7.07406C5.78969 6.72438 5.95281 6.47406 6.21531 6.21156C6.47781 5.94906 6.72719 5.78688 7.07781 5.65094C7.34219 5.54781 7.73875 5.42594 8.47 5.39219C9.16188 5.36031 9.43 5.35094 10.8278 5.35V5.35188ZM15.5041 6.59687C15.3859 6.59687 15.2688 6.62015 15.1596 6.66538C15.0505 6.71061 14.9512 6.77691 14.8677 6.86048C14.7841 6.94405 14.7178 7.04327 14.6726 7.15246C14.6273 7.26165 14.6041 7.37869 14.6041 7.49688C14.6041 7.61506 14.6273 7.7321 14.6726 7.84129C14.7178 7.95048 14.7841 8.0497 14.8677 8.13327C14.9512 8.21684 15.0505 8.28314 15.1596 8.32837C15.2688 8.3736 15.3859 8.39687 15.5041 8.39687C15.7428 8.39687 15.9717 8.30205 16.1405 8.13327C16.3092 7.96449 16.4041 7.73557 16.4041 7.49688C16.4041 7.25818 16.3092 7.02926 16.1405 6.86048C15.9717 6.6917 15.7428 6.59687 15.5041 6.59687ZM11.5009 7.64875C10.9901 7.64078 10.4827 7.73452 10.0084 7.92451C9.53412 8.1145 9.10236 8.39694 8.73827 8.7554C8.37417 9.11385 8.08503 9.54116 7.88766 10.0124C7.6903 10.4837 7.58866 10.9895 7.58866 11.5005C7.58866 12.0114 7.6903 12.5172 7.88766 12.9885C8.08503 13.4598 8.37417 13.8871 8.73827 14.2455C9.10236 14.604 9.53412 14.8864 10.0084 15.0764C10.4827 15.2664 10.9901 15.3602 11.5009 15.3522C12.5121 15.3364 13.4764 14.9237 14.1859 14.203C14.8954 13.4824 15.293 12.5117 15.293 11.5005C15.293 10.4892 14.8954 9.51851 14.1859 8.79789C13.4764 8.07727 12.5121 7.66453 11.5009 7.64875ZM11.5009 8.99969C12.1641 8.99969 12.8 9.26311 13.2689 9.73201C13.7378 10.2009 14.0013 10.8369 14.0013 11.5C14.0013 12.1631 13.7378 12.7991 13.2689 13.268C12.8 13.7369 12.1641 14.0003 11.5009 14.0003C10.8378 14.0003 10.2018 13.7369 9.73295 13.268C9.26405 12.7991 9.00063 12.1631 9.00063 11.5C9.00063 10.8369 9.26405 10.2009 9.73295 9.73201C10.2018 9.26311 10.8378 8.99969 11.5009 8.99969Z" fill="white"/>
</g>
<defs>
<filter id="filter0_d_301_47" x="0" y="0" width="23" height="23" filterUnits="userSpaceOnUse" color-interpolation-filters="sRGB">
<feFlood flood-opacity="0" result="BackgroundImageFix"/>
<feColorMatrix in="SourceAlpha" type="matrix" values="0 0 0 0 0 0 0 0 0 0 0 0 0 0 0 0 0 0 127 0" result="hardAlpha"/>
<feOffset/>
<feGaussianBlur stdDeviation="2"/>
<feComposite in2="hardAlpha" operator="out"/>
<feColorMatrix type="matrix" values="0 0 0 0 0 0 0 0 0 0.6 0 0 0 0 0 0 0 0 0.6 0"/>
<feBlend mode="normal" in2="BackgroundImageFix" result="effect1_dropShadow_301_47"/>
<feBlend mode="normal" in="SourceGraphic" in2="effect1_dropShadow_301_47" result="shape"/>
</filter>
</defs>
</svg>
