<svg width="50" height="50" viewBox="0 0 50 50" fill="none" xmlns="http://www.w3.org/2000/svg">
<path fill-rule="evenodd" clip-rule="evenodd" d="M5.89191 1.59716C6.43869 1.05121 7.09525 0.627687 7.81809 0.354669C8.54093 0.0816522 9.31354 -0.0346285 10.0847 0.0135331C10.8559 0.0616948 11.608 0.273199 12.2913 0.63403C12.9745 0.99486 13.5733 1.49678 14.0479 2.10652L19.6571 9.31254C20.6852 10.6344 21.0477 12.3562 20.6414 13.9811L18.9321 20.8247C18.8437 21.1791 18.8485 21.5504 18.946 21.9025C19.0434 22.2546 19.2303 22.5754 19.4884 22.834L27.1662 30.5119C27.4251 30.7705 27.7465 30.9576 28.0992 31.0551C28.4519 31.1526 28.8238 31.1571 29.1787 31.0681L36.0191 29.3588C36.821 29.1583 37.658 29.1427 38.4668 29.3132C39.2756 29.4838 40.035 29.8359 40.6877 30.3431L47.8937 35.9492C50.4843 37.9648 50.7217 41.7928 48.4031 44.1083L45.1719 47.3395C42.8595 49.6519 39.4034 50.6675 36.1816 49.5332C27.9355 46.6318 20.4486 41.911 14.276 35.7211C8.08649 29.5495 3.36577 22.0636 0.463957 13.8187C-0.667257 10.6 0.348336 7.14074 2.66076 4.82831L5.89191 1.59716Z" fill="white"/>
</svg>
