<svg width="80" height="100" viewBox="0 0 80 100" fill="none" xmlns="http://www.w3.org/2000/svg">
<path d="M69.1669 0H10.8336C5.08769 0 0.416992 4.67499 0.416992 10.4166V97.9164C0.416992 98.6539 0.808593 99.3373 1.44199 99.7123C2.07949 100.087 2.86289 100.096 3.51288 99.7373L40.0001 79.4664L76.4875 99.7373C76.8042 99.9123 77.1501 99.9998 77.5001 99.9998C77.8667 99.9998 78.2335 99.9039 78.5584 99.7123C79.1918 99.3373 79.5834 98.6539 79.5834 97.9164V10.4166C79.5834 4.67499 74.9126 0 69.1669 0ZM75.4168 94.3748L41.0128 75.2624C40.696 75.0874 40.3501 74.9999 40.0001 74.9999C39.6501 74.9999 39.3042 75.0874 38.9876 75.2624L4.58359 94.3748V10.4166C4.58359 6.97069 7.38768 4.16659 10.8336 4.16659H69.1669C72.6128 4.16659 75.4168 6.97069 75.4168 10.4166V94.3748Z" fill="black"/>
<path d="M69.3962 33.3458L51.7128 31.3833L41.8212 13.5749C41.0796 12.254 38.9171 12.254 38.1754 13.5749L28.2838 31.3833L10.6004 33.3458C9.8088 33.4374 9.13381 33.9749 8.86701 34.7292C8.60041 35.4833 8.79201 36.3251 9.35861 36.8917L23.1545 50.6875L19.2086 70.425C19.0502 71.2209 19.367 72.0375 20.0211 72.5166C20.6836 72.9957 21.5502 73.0457 22.2627 72.6541L40.0003 62.7998L57.7378 72.6539C58.0544 72.8289 58.4044 72.9164 58.7503 72.9164C59.1837 72.9164 59.6128 72.783 59.9753 72.5164C60.6294 72.0373 60.9462 71.2205 60.7878 70.4248L56.8421 50.6873L70.638 36.8915C71.2046 36.3249 71.3921 35.4874 71.1296 34.729C70.8671 33.9708 70.1878 33.4333 69.3962 33.3458ZM53.1128 48.5289C52.6212 49.0248 52.4044 49.7289 52.5419 50.4123L55.8253 66.8248L41.0128 58.5957C40.6962 58.4207 40.3503 58.3332 40.0003 58.3332C39.6503 58.3332 39.3044 58.4207 38.9878 58.5957L24.1754 66.8248L27.4588 50.4123C27.5963 49.7289 27.3797 49.0207 26.8879 48.5289L15.367 37.0081L29.8129 35.404C30.4795 35.329 31.0754 34.9374 31.4045 34.3456L40.0003 18.8749L48.5962 34.3458C48.9253 34.9333 49.5212 35.3292 50.1878 35.4042L64.6337 37.0083L53.1128 48.5289Z" fill="black"/>
</svg>
