<svg width="40" height="40" viewBox="0 0 40 40" fill="none" xmlns="http://www.w3.org/2000/svg">
<path d="M24.257 20.7349C24.5661 20.8067 24.8762 20.8621 25.186 20.8998C25.0269 21.4752 24.7452 22.1109 24.308 22.817C23.3866 24.3036 22.2253 25.3795 20.831 26.096L18.7997 27.1399L20.1025 29.0157L22.7358 32.8074L23.7198 34.2242L25.2658 33.4589C26.7484 32.725 28.1555 31.7956 29.4501 30.6738C30.7645 29.5493 31.9223 28.2636 32.9428 26.8258C34.0183 25.3104 34.8179 23.607 35.3273 21.7014C35.8427 19.7735 35.9883 17.8001 35.7424 15.7781C35.4274 13.1558 34.5576 10.8744 32.9976 9.11277C31.4008 7.2905 29.3292 6.33484 26.9168 6.33484C24.8768 6.33484 23.0355 6.96231 21.5607 8.32813C20.4857 9.3158 19.831 10.5411 19.536 11.9161C19.0954 10.8793 18.5164 9.93835 17.785 9.11174C16.1912 7.29954 14.1242 6.3515 11.7152 6.3515C9.67174 6.3515 7.83089 6.97894 6.35625 8.341C4.83364 9.74115 4.14624 11.6216 4.14186 13.7378L4.14017 13.7382C4.14017 15.5705 4.62668 17.2485 5.70394 18.6513L5.70392 18.6513L5.71025 18.6595C6.56305 19.7582 7.72297 20.4454 9.0639 20.7463L9.06946 20.7475C9.37531 20.8153 9.68047 20.8674 9.98426 20.903C9.82798 21.4764 9.55061 22.1101 9.11839 22.8115C8.19745 24.2892 7.03653 25.3643 5.6373 26.0888L3.62028 27.133L4.91139 29.0017L7.53806 32.8034L8.52102 34.2261L10.0708 33.4589C11.5587 32.7224 12.956 31.7921 14.2534 30.6753C15.5625 29.5527 16.7269 28.2653 17.7429 26.8185C18.8106 25.3012 19.5967 23.6029 20.1043 21.7064C20.4123 20.5768 20.5859 19.4235 20.6276 18.2564C20.717 18.3903 20.8113 18.522 20.9106 18.6513L20.9194 18.6628L20.9284 18.6742C21.7785 19.7484 22.9251 20.4271 24.257 20.7349ZM24.257 20.7349C24.2564 20.7347 24.2558 20.7346 24.2552 20.7344L24.7085 18.7865M24.257 20.7349C24.2576 20.735 24.2582 20.7351 24.2588 20.7353L24.7085 18.7865M24.7085 18.7865C25.4085 18.9494 26.0793 18.9967 26.7061 18.929L23.3502 18.2187C23.7444 18.4791 24.1971 18.6685 24.7085 18.7865Z" fill="white" stroke="#0653B6" stroke-width="4"/>
</svg>
