<svg width="51" height="50" viewBox="0 0 51 50" fill="none" xmlns="http://www.w3.org/2000/svg">
<path d="M50.0046 25C50.0046 31.6304 47.3707 37.9893 42.6823 42.6777C37.9939 47.3661 31.6351 50 25.0046 50C18.3742 50 12.0154 47.3661 7.32697 42.6777C2.63856 37.9893 0.00463867 31.6304 0.00463867 25C0.00463867 18.3696 2.63856 12.0107 7.32697 7.32233C12.0154 2.63392 18.3742 0 25.0046 0C31.6351 0 37.9939 2.63392 42.6823 7.32233C47.3707 12.0107 50.0046 18.3696 50.0046 25ZM25.9015 18.4563C23.4703 19.4688 18.6078 21.5625 11.3203 24.7375C10.139 25.2062 9.51714 25.6687 9.46089 26.1187C9.36714 26.8781 10.3203 27.1781 11.6171 27.5875L12.164 27.7594C13.439 28.175 15.1578 28.6594 16.0484 28.6781C16.8609 28.6969 17.764 28.3656 18.7609 27.6781C25.5703 23.0813 29.0859 20.7594 29.3046 20.7094C29.4609 20.6719 29.6796 20.6281 29.8234 20.7594C29.9703 20.8875 29.9546 21.1344 29.939 21.2C29.8453 21.6031 26.1046 25.0781 24.1703 26.8781C23.5671 27.4406 23.139 27.8375 23.0515 27.9281C22.8588 28.125 22.663 28.3188 22.464 28.5094C21.2765 29.6531 20.389 30.5094 22.5109 31.9094C23.5328 32.5844 24.3515 33.1375 25.1671 33.6937C26.0546 34.3 26.9421 34.9031 28.0921 35.6594C28.3828 35.8469 28.664 36.05 28.9359 36.2437C29.9703 36.9812 30.9046 37.6437 32.0515 37.5375C32.7203 37.475 33.4109 36.85 33.7609 34.975C34.589 30.5469 36.2171 20.9562 36.5921 17.0031C36.615 16.6745 36.6014 16.3444 36.5515 16.0187C36.5221 15.756 36.3949 15.5139 36.1953 15.3406C35.9109 15.1443 35.5719 15.0427 35.2265 15.05C34.289 15.0656 32.8421 15.5688 25.9015 18.4563Z" fill="white"/>
</svg>
