<svg width="50" height="50" viewBox="0 0 50 50" fill="none" xmlns="http://www.w3.org/2000/svg">
<path d="M42.5078 7.2689C40.2155 4.95539 37.4857 3.12123 34.4775 1.87329C31.4692 0.62536 28.2427 -0.0113884 24.9859 0.000154158C11.339 0.000154158 0.217139 11.1189 0.204639 24.7689C0.204639 29.1408 1.34839 33.3939 3.50776 37.1595L0.00463867 50.0001L13.1421 46.5564C16.7765 48.5343 20.8482 49.571 24.9859 49.572H24.9984C38.6484 49.572 49.7671 38.4533 49.7796 24.7908C49.7828 21.5347 49.1416 18.3101 47.893 15.3029C46.6444 12.2957 44.8131 9.56525 42.5046 7.2689H42.5078ZM24.9859 45.3783C21.2953 45.3795 17.6725 44.3864 14.4984 42.5033L13.7484 42.0533L5.95464 44.097L8.03589 36.4939L7.54839 35.7095C5.48529 32.4293 4.39416 28.6315 4.40151 24.7564C4.40151 13.4252 13.6421 4.1814 24.9984 4.1814C27.7038 4.17655 30.3835 4.70726 32.8828 5.74294C35.3822 6.77862 37.6518 8.29878 39.5609 10.2158C41.4766 12.1253 42.9953 14.3952 44.0294 16.8946C45.0635 19.394 45.5925 22.0734 45.5859 24.7783C45.5734 36.1501 36.3328 45.3783 24.9859 45.3783V45.3783ZM36.2828 29.9595C35.6671 29.6502 32.6265 28.1533 32.0546 27.9408C31.4859 27.7377 31.0703 27.6314 30.664 28.2502C30.2484 28.8658 29.0609 30.2689 28.7046 30.672C28.3484 31.0876 27.9796 31.1345 27.3609 30.8283C26.7453 30.5158 24.7484 29.8658 22.3859 27.7502C20.5421 26.1095 19.3078 24.0783 18.939 23.4626C18.5828 22.8439 18.9046 22.5127 19.214 22.2033C19.4859 21.9283 19.8296 21.4783 20.139 21.122C20.4515 20.7658 20.5546 20.5033 20.7578 20.0908C20.9609 19.672 20.864 19.3158 20.7109 19.0064C20.5546 18.697 19.3203 15.6439 18.7984 14.4127C18.2984 13.197 17.789 13.3658 17.4078 13.3502C17.0515 13.3283 16.6359 13.3283 16.2203 13.3283C15.9064 13.3361 15.5975 13.4087 15.3131 13.5415C15.0286 13.6743 14.7746 13.8645 14.5671 14.1002C13.9984 14.7189 12.4078 16.2158 12.4078 19.2689C12.4078 22.322 14.6265 25.2564 14.939 25.672C15.2453 26.0877 19.2953 32.3345 25.5109 35.022C26.9796 35.6626 28.1359 36.0408 29.039 36.3283C30.5234 36.8033 31.864 36.7314 32.9328 36.5783C34.1203 36.397 36.5921 35.0783 37.114 33.6314C37.6265 32.1814 37.6265 30.9439 37.4703 30.6845C37.3171 30.422 36.9015 30.2689 36.2828 29.9595V29.9595Z" fill="white"/>
</svg>
